<?xml version="1.0"?>
<svg xmlns:rdf="http://www.w3.org/1999/02/22-rdf-syntax-ns#" xmlns="http://www.w3.org/2000/svg" xmlns:cc="http://creativecommons.org/ns#" xmlns:dc="http://purl.org/dc/elements/1.1/" id="svg2" viewBox="0 0 92.91 123" version="1.1">
  <g id="layer1" transform="translate(-432.97 -243.2)">
    <path id="path3038" d="m450.38 365.04c-0.31266-0.81479 1.6917-4.4022 4.6248-8.2773 3.6131-4.7736 4.7631-6.9715 3.8075-7.2772-0.753-0.2409-3.3941-1.8082-5.8691-3.4828-19.622-13.277-25.953-43.154-13.702-64.659 3.9854-6.9954 11.389-14.301 17.77-17.534 4.327-2.1927 4.8411-2.7684 3.9533-4.4274-1.2976-2.4245-1.3148-7.6202-0.0332-10.015 0.54305-1.0147 2.5087-2.7851 4.368-3.9343 4.7045-2.9076 17.664-2.9849 22.34-0.13338 5.7649 3.5151 7.2632 7.5338 4.892 13.122-0.51436 1.2122 1.0358 2.4205 6.6905 5.2152 12.632 6.2432 21.143 16.823 24.83 30.867 2.6315 10.023 2.4443 18.341-0.61815 27.464-3.7136 11.063-9.1442 18.933-16.115 23.353l-4.2167 2.6742 4.5016 5.6745c2.4759 3.121 4.9152 5.6745 5.4206 5.6745 0.50544 0 0.91898 0.9 0.91898 2 0 1.5953-0.66667 2-3.2945 2-2.7703 0-3.8903-0.78127-7.0386-4.9096-5.4895-7.1983-5.5617-7.2336-11.222-5.4801-5.6364 1.7461-16.92 2.0303-23.189 0.58414l-4.2439-0.9791-3.2561 4.6423c-1.7909 2.5533-3.7515 5.5423-4.357 6.6423-1.3346 2.4247-6.1719 3.2556-6.9623 1.1959zm27.522-19.246c-1.0604-1.2778-1.0077-1.829 0.30001-3.1367 1.9921-1.9921 4.7416-1.0321 4.7416 1.6556 0 2.5429 3.0042 2.6759 9.715 0.43008 13.293-4.4484 22.663-16.858 24.942-33.033 0.56175-3.986 0.49288-4.1171-1.9202-3.6558-1.3766 0.26315-2.8096-0.018-3.1846-0.62467-1.1408-1.8458 0.46114-5.0852 2.5147-5.0852 2.2129 0 2.3366-0.93278 0.8619-6.5-3.9246-14.816-16.975-26.415-31.68-28.157-4.9268-0.58351-5.0114-0.54834-4.5453 1.8898 0.32991 1.7258-0.0491 2.6854-1.2414 3.143-2.3023 0.88347-4.7227-1.2739-4.1002-3.6546 0.44865-1.7156 0.11242-1.8479-3.1805-1.2512-9.5977 1.7392-19.989 8.9316-24.824 17.182-4.465 7.619-7.1114 21.235-3.8868 19.997 1.9047-0.73091 4.6104 1.9747 3.8795 3.8795-0.55676 1.4509-1.6518 1.8637-4.1005 1.5457-3.0756-0.39939 0.0576 10.684 5.4094 19.136 7.1185 11.242 14.525 15.503 30.713 17.672 0.47985 0.0643 0.2935-0.58068-0.41409-1.4333zm-16.388-5.3365c-0.30141-0.48768 0.0623-1.3932 0.8083-2.0123 1.0188-0.84553 1.636-0.78861 2.4803 0.2287 0.6182 0.74489 0.8279 1.6504 0.46601 2.0123-0.94334 0.94334-3.1119 0.81125-3.7546-0.2287zm36.117-1.7591c-1.3738-1.3738-0.66124-3.4958 1.0625-3.1638 0.9625 0.18536 1.75 0.96836 1.75 1.74 0 1.5789-1.7643 2.472-2.8125 1.4238zm-49.32-10.82c-0.30291-0.78939-0.27147-1.8872 0.0699-2.4395 0.81742-1.3226 3.5566-0.23788 3.5566 1.4084 0 1.8788-2.9764 2.725-3.6265 1.031zm60.362-3.1288c-0.93874-0.93873 0.33886-3.4022 1.7644-3.4022 1.4256 0 2.7032 2.4635 1.7644 3.4022-0.32877 0.32878-1.1228 0.59777-1.7644 0.59777-0.64167 0-1.4357-0.26899-1.7644-0.59777zm-32.069-15.069c-0.36667-0.36666-0.66667-1.4316-0.66667-2.3665 0-1.13-2.2628-2.7245-6.75-4.7566-6.1837-2.8003-6.8573-2.918-8.0287-1.4031-1.1567 1.4959-1.5111 1.3693-3.714-1.3268-3.6203-4.4306-3.218-5.4804 2.0998-5.4804 3.4565 0 4.4776 0.33709 4.089 1.3499-0.79203 2.064 11.882 7.7345 16.328 7.305 4.0443-0.39072 21.291-11.338 20.324-12.901-0.77344-1.2514 1.528-2.7189 4.295-2.7387 1.1787-0.008 2.3991-0.68272 2.7122-1.4984 0.67285-1.7534 3.6448-0.91948 3.6448 1.0227 0 0.72909-0.78781 1.5757-1.7507 1.8813-0.96288 0.30561-2.3583 1.9283-3.1009 3.6061-1.07 2.4173-1.6344 2.8146-2.7195 1.914-1.074-0.89132-3.3052 0.23247-10.347 5.2113-4.9376 3.4912-9.4414 7.3602-10.008 8.5977-0.99152 2.1642-4.8682 3.1222-6.4071 1.5833zm-31.667-19.333c0-1.5062 0.52215-2.0461 1.75-1.8096 0.9625 0.18536 1.75 0.9997 1.75 1.8096 0 0.80994-0.7875 1.6243-1.75 1.8096-1.2278 0.23646-1.75-0.30348-1.75-1.8096zm11.19-13.75c0.18536-0.9625 0.99969-1.75 1.8096-1.75 0.80993 0 1.6243 0.7875 1.8096 1.75 0.23646 1.2278-0.30348 1.75-1.8096 1.75-1.5062 0-2.0461-0.52215-1.8096-1.75zm36.497-0.89583c-1.4155-1.4155-0.61453-3.3542 1.3858-3.3542 1.398 0 1.968 0.54305 1.75 1.6671-0.35694 1.8405-2.064 2.7589-3.1358 1.687zm-18.688-18.906c0-0.71984-1.0125-1.4526-2.25-1.6284-1.2375-0.17575-2.25-0.99455-2.25-1.8196 0-1.1684 1.6028-1.565 7.25-1.7938 5.859-0.23744 7.25-0.0105 7.25 1.1826 0 0.81203-0.9 1.7621-2 2.1112-2.462 0.78141-2.6551 3.4949-0.25 3.5136 0.9625 0.008 2.65 0.25304 3.75 0.54561 1.5262 0.40594 2.3228-0.20499 3.3628-2.5791 1.2544-2.8635 1.18-3.3057-0.93487-5.5568-4.5522-4.8456-15.198-5.4655-21.178-1.2333-2.8897 2.045-3.5686 5.412-1.7691 8.7742 0.85355 1.5949 1.5026 1.7004 5 0.81262 2.2105-0.56109 4.0191-1.6091 4.0191-2.329z"/>
  </g>
  <metadata>
    <rdf:RDF>
      <cc:Work>
        <dc:format>image/svg+xml</dc:format>
        <dc:type rdf:resource="http://purl.org/dc/dcmitype/StillImage"/>
        <cc:license rdf:resource="http://creativecommons.org/licenses/publicdomain/"/>
        <dc:publisher>
          <cc:Agent rdf:about="http://openclipart.org/">
            <dc:title>Openclipart</dc:title>
          </cc:Agent>
        </dc:publisher>
      </cc:Work>
      <cc:License rdf:about="http://creativecommons.org/licenses/publicdomain/">
        <cc:permits rdf:resource="http://creativecommons.org/ns#Reproduction"/>
        <cc:permits rdf:resource="http://creativecommons.org/ns#Distribution"/>
        <cc:permits rdf:resource="http://creativecommons.org/ns#DerivativeWorks"/>
      </cc:License>
    </rdf:RDF>
  </metadata>
</svg>
